<mxfile host="app.diagrams.net" agent="Mozilla/5.0 (Windows NT 10.0; Win64; x64) AppleWebKit/537.36 (KHTML, like Gecko) Chrome/122.0.0.0 Safari/537.36" version="24.8.6">
  <diagram name="Страница — 1" id="yu08dZkPonVUcxdfUiRS">
    <mxGraphModel dx="2206" dy="1148" grid="1" gridSize="10" guides="1" tooltips="1" connect="1" arrows="1" fold="1" page="1" pageScale="1" pageWidth="827" pageHeight="1169" math="0" shadow="0">
      <root>
        <mxCell id="0" />
        <mxCell id="1" parent="0" />
        <mxCell id="oCJuTsg-3VOqoSwkAU5J-2" value="&lt;p style=&quot;margin: 4px 0px 0px;&quot;&gt;&lt;/p&gt;" style="verticalAlign=top;align=center;overflow=fill;html=1;whiteSpace=wrap;movable=1;resizable=1;rotatable=1;deletable=1;editable=1;locked=0;connectable=1;container=0;" vertex="1" parent="1">
          <mxGeometry width="170" height="910" as="geometry" />
        </mxCell>
        <mxCell id="oCJuTsg-3VOqoSwkAU5J-3" value="&lt;p style=&quot;margin: 4px 0px 0px;&quot;&gt;&lt;/p&gt;" style="verticalAlign=top;align=center;overflow=fill;html=1;whiteSpace=wrap;movable=1;resizable=1;rotatable=1;deletable=1;editable=1;locked=0;connectable=1;container=0;" vertex="1" parent="1">
          <mxGeometry x="170" width="170" height="910" as="geometry" />
        </mxCell>
        <mxCell id="oCJuTsg-3VOqoSwkAU5J-4" value="&lt;p style=&quot;margin: 4px 0px 0px;&quot;&gt;&lt;/p&gt;" style="verticalAlign=top;align=center;overflow=fill;html=1;whiteSpace=wrap;movable=1;resizable=1;rotatable=1;deletable=1;editable=1;locked=0;connectable=1;container=0;" vertex="1" parent="1">
          <mxGeometry x="340" width="170" height="910" as="geometry" />
        </mxCell>
        <mxCell id="oCJuTsg-3VOqoSwkAU5J-5" value="" style="verticalAlign=top;align=center;overflow=fill;html=1;whiteSpace=wrap;movable=1;resizable=1;rotatable=1;deletable=1;editable=1;locked=0;connectable=1;container=0;" vertex="1" parent="1">
          <mxGeometry x="680" width="170" height="910" as="geometry" />
        </mxCell>
        <mxCell id="oCJuTsg-3VOqoSwkAU5J-6" value="&lt;p style=&quot;margin: 4px 0px 0px; font-size: 11px;&quot;&gt;&lt;/p&gt;&lt;p style=&quot;margin: 4px 0px 0px; font-size: 11px;&quot;&gt;&lt;/p&gt;" style="verticalAlign=top;align=center;overflow=fill;html=1;whiteSpace=wrap;movable=1;resizable=1;rotatable=1;deletable=1;editable=1;locked=0;connectable=1;container=0;" vertex="1" parent="1">
          <mxGeometry x="510" width="170" height="910" as="geometry" />
        </mxCell>
        <mxCell id="oCJuTsg-3VOqoSwkAU5J-7" value="БД" style="text;align=center;fontStyle=1;verticalAlign=middle;spacingLeft=3;spacingRight=3;strokeColor=none;rotatable=0;points=[[0,0.5],[1,0.5]];portConstraint=eastwest;html=1;container=0;" vertex="1" parent="1">
          <mxGeometry x="725" y="10" width="80" height="20" as="geometry" />
        </mxCell>
        <mxCell id="oCJuTsg-3VOqoSwkAU5J-8" value="Проверка&amp;nbsp;&lt;div&gt;корректности данных&lt;/div&gt;" style="text;align=center;fontStyle=1;verticalAlign=middle;spacingLeft=3;spacingRight=3;strokeColor=none;rotatable=0;points=[[0,0.5],[1,0.5]];portConstraint=eastwest;html=1;container=0;" vertex="1" parent="1">
          <mxGeometry x="515" y="5" width="160" height="30" as="geometry" />
        </mxCell>
        <mxCell id="oCJuTsg-3VOqoSwkAU5J-9" value="Кассир" style="text;align=center;fontStyle=1;verticalAlign=middle;spacingLeft=3;spacingRight=3;strokeColor=none;rotatable=0;points=[[0,0.5],[1,0.5]];portConstraint=eastwest;html=1;container=0;" vertex="1" parent="1">
          <mxGeometry x="385" y="10" width="80" height="20" as="geometry" />
        </mxCell>
        <mxCell id="oCJuTsg-3VOqoSwkAU5J-10" value="Администратор" style="text;align=center;fontStyle=1;verticalAlign=middle;spacingLeft=3;spacingRight=3;strokeColor=none;rotatable=0;points=[[0,0.5],[1,0.5]];portConstraint=eastwest;html=1;container=0;" vertex="1" parent="1">
          <mxGeometry x="205" y="10" width="100" height="20" as="geometry" />
        </mxCell>
        <mxCell id="oCJuTsg-3VOqoSwkAU5J-11" value="Пользователь" style="text;align=center;fontStyle=1;verticalAlign=middle;spacingLeft=3;spacingRight=3;strokeColor=none;rotatable=0;points=[[0,0.5],[1,0.5]];portConstraint=eastwest;html=1;container=0;" vertex="1" parent="1">
          <mxGeometry x="40" y="10" width="90" height="20" as="geometry" />
        </mxCell>
        <mxCell id="oCJuTsg-3VOqoSwkAU5J-12" value="" style="line;strokeWidth=1;fillColor=none;align=left;verticalAlign=middle;spacingTop=-1;spacingLeft=3;spacingRight=3;rotatable=0;labelPosition=right;points=[];portConstraint=eastwest;strokeColor=inherit;container=0;" vertex="1" parent="1">
          <mxGeometry y="35" width="850" height="8" as="geometry" />
        </mxCell>
        <mxCell id="oCJuTsg-3VOqoSwkAU5J-13" value="" style="ellipse;html=1;shape=endState;fillColor=#000000;strokeColor=none;" vertex="1" parent="1">
          <mxGeometry x="70" y="50" width="30" height="30" as="geometry" />
        </mxCell>
        <mxCell id="oCJuTsg-3VOqoSwkAU5J-14" value="" style="edgeStyle=orthogonalEdgeStyle;rounded=0;orthogonalLoop=1;jettySize=auto;html=1;" edge="1" parent="1" source="oCJuTsg-3VOqoSwkAU5J-15" target="oCJuTsg-3VOqoSwkAU5J-21">
          <mxGeometry relative="1" as="geometry" />
        </mxCell>
        <mxCell id="oCJuTsg-3VOqoSwkAU5J-15" value="&lt;font style=&quot;font-size: 14px;&quot;&gt;Авторизация&lt;/font&gt;" style="rounded=1;whiteSpace=wrap;html=1;" vertex="1" parent="1">
          <mxGeometry x="30" y="100" width="110" height="50" as="geometry" />
        </mxCell>
        <mxCell id="oCJuTsg-3VOqoSwkAU5J-16" value="" style="endArrow=none;html=1;rounded=0;entryX=0.494;entryY=0.798;entryDx=0;entryDy=0;entryPerimeter=0;exitX=0.5;exitY=0;exitDx=0;exitDy=0;" edge="1" parent="1" source="oCJuTsg-3VOqoSwkAU5J-15" target="oCJuTsg-3VOqoSwkAU5J-13">
          <mxGeometry width="50" height="50" relative="1" as="geometry">
            <mxPoint x="330" y="310" as="sourcePoint" />
            <mxPoint x="380" y="260" as="targetPoint" />
          </mxGeometry>
        </mxCell>
        <mxCell id="oCJuTsg-3VOqoSwkAU5J-19" style="edgeStyle=orthogonalEdgeStyle;rounded=0;orthogonalLoop=1;jettySize=auto;html=1;entryX=0;entryY=0.5;entryDx=0;entryDy=0;" edge="1" parent="1" source="oCJuTsg-3VOqoSwkAU5J-21" target="oCJuTsg-3VOqoSwkAU5J-26">
          <mxGeometry relative="1" as="geometry">
            <Array as="points">
              <mxPoint x="150" y="245" />
              <mxPoint x="150" y="125" />
            </Array>
          </mxGeometry>
        </mxCell>
        <mxCell id="oCJuTsg-3VOqoSwkAU5J-20" value="Да" style="edgeLabel;html=1;align=center;verticalAlign=middle;resizable=0;points=[];" vertex="1" connectable="0" parent="oCJuTsg-3VOqoSwkAU5J-19">
          <mxGeometry x="-0.2667" y="2" relative="1" as="geometry">
            <mxPoint x="-12" y="-8" as="offset" />
          </mxGeometry>
        </mxCell>
        <mxCell id="oCJuTsg-3VOqoSwkAU5J-21" value="&lt;font style=&quot;font-size: 14px;&quot;&gt;Администратор&lt;/font&gt;" style="rhombus;whiteSpace=wrap;html=1;" vertex="1" parent="1">
          <mxGeometry x="30" y="200" width="110" height="90" as="geometry" />
        </mxCell>
        <mxCell id="oCJuTsg-3VOqoSwkAU5J-24" value="&lt;span style=&quot;font-size: 14px;&quot;&gt;Кассир&lt;/span&gt;" style="rhombus;whiteSpace=wrap;html=1;" vertex="1" parent="1">
          <mxGeometry x="30" y="335" width="110" height="90" as="geometry" />
        </mxCell>
        <mxCell id="oCJuTsg-3VOqoSwkAU5J-26" value="&lt;font style=&quot;font-size: 14px;&quot;&gt;Добавление договора&lt;/font&gt;" style="rounded=1;whiteSpace=wrap;html=1;" vertex="1" parent="1">
          <mxGeometry x="200" y="100" width="110" height="50" as="geometry" />
        </mxCell>
        <mxCell id="oCJuTsg-3VOqoSwkAU5J-27" value="" style="ellipse;html=1;shape=endState;fillColor=#000000;strokeColor=#ff0000;" vertex="1" parent="1">
          <mxGeometry x="70" y="860" width="30" height="30" as="geometry" />
        </mxCell>
        <mxCell id="oCJuTsg-3VOqoSwkAU5J-30" value="&lt;font style=&quot;font-size: 14px;&quot;&gt;Редактирование договора&lt;/font&gt;" style="rounded=1;whiteSpace=wrap;html=1;" vertex="1" parent="1">
          <mxGeometry x="200" y="290" width="110" height="50" as="geometry" />
        </mxCell>
        <mxCell id="oCJuTsg-3VOqoSwkAU5J-34" value="&lt;font style=&quot;font-size: 14px;&quot;&gt;Сохранение изменений&lt;/font&gt;" style="rounded=1;whiteSpace=wrap;html=1;" vertex="1" parent="1">
          <mxGeometry x="710" y="200" width="110" height="50" as="geometry" />
        </mxCell>
        <mxCell id="oCJuTsg-3VOqoSwkAU5J-36" value="&lt;font style=&quot;font-size: 14px;&quot;&gt;Выдача денег&lt;/font&gt;" style="rounded=1;whiteSpace=wrap;html=1;" vertex="1" parent="1">
          <mxGeometry x="370" y="600" width="110" height="50" as="geometry" />
        </mxCell>
        <mxCell id="oCJuTsg-3VOqoSwkAU5J-39" style="edgeStyle=orthogonalEdgeStyle;rounded=0;orthogonalLoop=1;jettySize=auto;html=1;exitX=0.5;exitY=1;exitDx=0;exitDy=0;entryX=0.5;entryY=0;entryDx=0;entryDy=0;" edge="1" parent="1" source="oCJuTsg-3VOqoSwkAU5J-40" target="oCJuTsg-3VOqoSwkAU5J-45">
          <mxGeometry relative="1" as="geometry" />
        </mxCell>
        <mxCell id="oCJuTsg-3VOqoSwkAU5J-42" value="&lt;font style=&quot;font-size: 14px;&quot;&gt;Сохранение записи&lt;/font&gt;" style="rounded=1;whiteSpace=wrap;html=1;" vertex="1" parent="1">
          <mxGeometry x="710" y="100" width="110" height="50" as="geometry" />
        </mxCell>
        <mxCell id="oCJuTsg-3VOqoSwkAU5J-45" value="&lt;font style=&quot;font-size: 14px;&quot;&gt;Данные корректны?&lt;/font&gt;" style="rhombus;whiteSpace=wrap;html=1;" vertex="1" parent="1">
          <mxGeometry x="540" y="200" width="110" height="60" as="geometry" />
        </mxCell>
        <mxCell id="oCJuTsg-3VOqoSwkAU5J-47" value="&lt;font style=&quot;font-size: 14px;&quot;&gt;Просмотр договоров&lt;/font&gt;" style="rounded=1;whiteSpace=wrap;html=1;" vertex="1" parent="1">
          <mxGeometry x="370" y="790" width="110" height="50" as="geometry" />
        </mxCell>
        <mxCell id="oCJuTsg-3VOqoSwkAU5J-49" value="&lt;font style=&quot;font-size: 14px;&quot;&gt;Предоставление данных&lt;/font&gt;" style="rounded=1;whiteSpace=wrap;html=1;" vertex="1" parent="1">
          <mxGeometry x="710" y="480" width="110" height="50" as="geometry" />
        </mxCell>
        <mxCell id="oCJuTsg-3VOqoSwkAU5J-63" value="&lt;font style=&quot;font-size: 14px;&quot;&gt;Редактирование пользователя&lt;/font&gt;" style="rounded=1;whiteSpace=wrap;html=1;" vertex="1" parent="1">
          <mxGeometry x="200" y="385" width="110" height="50" as="geometry" />
        </mxCell>
        <mxCell id="oCJuTsg-3VOqoSwkAU5J-72" value="&lt;font style=&quot;font-size: 14px;&quot;&gt;Добавление пользователя&lt;/font&gt;" style="rounded=1;whiteSpace=wrap;html=1;" vertex="1" parent="1">
          <mxGeometry x="200" y="200" width="110" height="50" as="geometry" />
        </mxCell>
        <mxCell id="oCJuTsg-3VOqoSwkAU5J-83" value="" style="endArrow=classic;html=1;rounded=0;exitX=0.5;exitY=1;exitDx=0;exitDy=0;entryX=0.5;entryY=0;entryDx=0;entryDy=0;" edge="1" parent="1" source="oCJuTsg-3VOqoSwkAU5J-21" target="oCJuTsg-3VOqoSwkAU5J-24">
          <mxGeometry relative="1" as="geometry">
            <mxPoint x="100" y="300" as="sourcePoint" />
            <mxPoint x="200" y="300" as="targetPoint" />
          </mxGeometry>
        </mxCell>
        <mxCell id="oCJuTsg-3VOqoSwkAU5J-84" value="Нет" style="edgeLabel;resizable=0;html=1;;align=center;verticalAlign=middle;" connectable="0" vertex="1" parent="oCJuTsg-3VOqoSwkAU5J-83">
          <mxGeometry relative="1" as="geometry" />
        </mxCell>
        <mxCell id="oCJuTsg-3VOqoSwkAU5J-85" value="&lt;font style=&quot;font-size: 14px;&quot;&gt;Расчет процентов и пени&lt;/font&gt;" style="rounded=1;whiteSpace=wrap;html=1;" vertex="1" parent="1">
          <mxGeometry x="370" y="700" width="110" height="50" as="geometry" />
        </mxCell>
        <mxCell id="oCJuTsg-3VOqoSwkAU5J-88" value="&lt;font style=&quot;font-size: 14px;&quot;&gt;Просмотр договоров и пользователей&lt;/font&gt;" style="rounded=1;whiteSpace=wrap;html=1;" vertex="1" parent="1">
          <mxGeometry x="200" y="480" width="110" height="50" as="geometry" />
        </mxCell>
        <mxCell id="oCJuTsg-3VOqoSwkAU5J-93" value="" style="edgeStyle=orthogonalEdgeStyle;rounded=0;orthogonalLoop=1;jettySize=auto;html=1;exitX=1;exitY=0.5;exitDx=0;exitDy=0;entryX=0;entryY=0.5;entryDx=0;entryDy=0;" edge="1" parent="1" source="oCJuTsg-3VOqoSwkAU5J-26" target="oCJuTsg-3VOqoSwkAU5J-40">
          <mxGeometry relative="1" as="geometry">
            <mxPoint x="310" y="125" as="sourcePoint" />
            <mxPoint x="900" y="125" as="targetPoint" />
          </mxGeometry>
        </mxCell>
        <mxCell id="oCJuTsg-3VOqoSwkAU5J-40" value="&lt;font style=&quot;font-size: 14px;&quot;&gt;Проверка введенных данных&lt;/font&gt;" style="rounded=1;whiteSpace=wrap;html=1;" vertex="1" parent="1">
          <mxGeometry x="540" y="100" width="110" height="50" as="geometry" />
        </mxCell>
        <mxCell id="oCJuTsg-3VOqoSwkAU5J-94" value="" style="endArrow=classic;html=1;rounded=0;exitX=1;exitY=0.5;exitDx=0;exitDy=0;entryX=0;entryY=0.5;entryDx=0;entryDy=0;" edge="1" parent="1" source="oCJuTsg-3VOqoSwkAU5J-72" target="oCJuTsg-3VOqoSwkAU5J-40">
          <mxGeometry width="50" height="50" relative="1" as="geometry">
            <mxPoint x="400" y="230" as="sourcePoint" />
            <mxPoint x="450" y="180" as="targetPoint" />
          </mxGeometry>
        </mxCell>
        <mxCell id="oCJuTsg-3VOqoSwkAU5J-95" value="" style="endArrow=classic;html=1;rounded=0;exitX=1;exitY=0.5;exitDx=0;exitDy=0;entryX=0;entryY=0.5;entryDx=0;entryDy=0;" edge="1" parent="1" source="oCJuTsg-3VOqoSwkAU5J-30" target="oCJuTsg-3VOqoSwkAU5J-40">
          <mxGeometry width="50" height="50" relative="1" as="geometry">
            <mxPoint x="370" y="300" as="sourcePoint" />
            <mxPoint x="420" y="250" as="targetPoint" />
          </mxGeometry>
        </mxCell>
        <mxCell id="oCJuTsg-3VOqoSwkAU5J-96" value="" style="endArrow=classic;html=1;rounded=0;exitX=1;exitY=0.5;exitDx=0;exitDy=0;entryX=0;entryY=0.5;entryDx=0;entryDy=0;" edge="1" parent="1" source="oCJuTsg-3VOqoSwkAU5J-63" target="oCJuTsg-3VOqoSwkAU5J-40">
          <mxGeometry width="50" height="50" relative="1" as="geometry">
            <mxPoint x="390" y="410" as="sourcePoint" />
            <mxPoint x="440" y="360" as="targetPoint" />
          </mxGeometry>
        </mxCell>
        <mxCell id="oCJuTsg-3VOqoSwkAU5J-97" value="" style="endArrow=classic;html=1;rounded=0;exitX=1;exitY=0.5;exitDx=0;exitDy=0;entryX=0;entryY=0.5;entryDx=0;entryDy=0;" edge="1" parent="1" source="oCJuTsg-3VOqoSwkAU5J-45" target="oCJuTsg-3VOqoSwkAU5J-42">
          <mxGeometry relative="1" as="geometry">
            <mxPoint x="570" y="310" as="sourcePoint" />
            <mxPoint x="620" y="280" as="targetPoint" />
          </mxGeometry>
        </mxCell>
        <mxCell id="oCJuTsg-3VOqoSwkAU5J-98" value="Да" style="edgeLabel;resizable=0;html=1;;align=center;verticalAlign=middle;" connectable="0" vertex="1" parent="oCJuTsg-3VOqoSwkAU5J-97">
          <mxGeometry relative="1" as="geometry" />
        </mxCell>
        <mxCell id="oCJuTsg-3VOqoSwkAU5J-100" value="" style="endArrow=classic;html=1;rounded=0;exitX=1;exitY=0.5;exitDx=0;exitDy=0;entryX=0;entryY=0.5;entryDx=0;entryDy=0;" edge="1" parent="1" source="oCJuTsg-3VOqoSwkAU5J-45" target="oCJuTsg-3VOqoSwkAU5J-34">
          <mxGeometry relative="1" as="geometry">
            <mxPoint x="700" y="180" as="sourcePoint" />
            <mxPoint x="800" y="180" as="targetPoint" />
          </mxGeometry>
        </mxCell>
        <mxCell id="oCJuTsg-3VOqoSwkAU5J-101" value="Да" style="edgeLabel;resizable=0;html=1;;align=center;verticalAlign=middle;" connectable="0" vertex="1" parent="oCJuTsg-3VOqoSwkAU5J-100">
          <mxGeometry relative="1" as="geometry" />
        </mxCell>
        <mxCell id="oCJuTsg-3VOqoSwkAU5J-103" value="" style="endArrow=classic;html=1;rounded=0;exitX=0.5;exitY=1;exitDx=0;exitDy=0;entryX=1;entryY=0.5;entryDx=0;entryDy=0;" edge="1" parent="1" source="oCJuTsg-3VOqoSwkAU5J-45" target="oCJuTsg-3VOqoSwkAU5J-27">
          <mxGeometry relative="1" as="geometry">
            <mxPoint x="570" y="340" as="sourcePoint" />
            <mxPoint x="670" y="340" as="targetPoint" />
            <Array as="points">
              <mxPoint x="590" y="875" />
            </Array>
          </mxGeometry>
        </mxCell>
        <mxCell id="oCJuTsg-3VOqoSwkAU5J-104" value="Нет" style="edgeLabel;resizable=0;html=1;;align=center;verticalAlign=middle;" connectable="0" vertex="1" parent="oCJuTsg-3VOqoSwkAU5J-103">
          <mxGeometry relative="1" as="geometry" />
        </mxCell>
        <mxCell id="oCJuTsg-3VOqoSwkAU5J-105" value="" style="endArrow=classic;html=1;rounded=0;exitX=1;exitY=0.5;exitDx=0;exitDy=0;entryX=0;entryY=0.5;entryDx=0;entryDy=0;" edge="1" parent="1" source="oCJuTsg-3VOqoSwkAU5J-88" target="oCJuTsg-3VOqoSwkAU5J-49">
          <mxGeometry width="50" height="50" relative="1" as="geometry">
            <mxPoint x="410" y="430" as="sourcePoint" />
            <mxPoint x="460" y="380" as="targetPoint" />
          </mxGeometry>
        </mxCell>
        <mxCell id="oCJuTsg-3VOqoSwkAU5J-106" value="" style="endArrow=classic;html=1;rounded=0;exitX=0.5;exitY=1;exitDx=0;exitDy=0;entryX=0.5;entryY=0;entryDx=0;entryDy=0;" edge="1" parent="1" source="oCJuTsg-3VOqoSwkAU5J-24" target="oCJuTsg-3VOqoSwkAU5J-36">
          <mxGeometry relative="1" as="geometry">
            <mxPoint x="60" y="480" as="sourcePoint" />
            <mxPoint x="160" y="480" as="targetPoint" />
            <Array as="points">
              <mxPoint x="85" y="560" />
              <mxPoint x="425" y="560" />
            </Array>
          </mxGeometry>
        </mxCell>
        <mxCell id="oCJuTsg-3VOqoSwkAU5J-107" value="Да" style="edgeLabel;resizable=0;html=1;;align=center;verticalAlign=middle;" connectable="0" vertex="1" parent="oCJuTsg-3VOqoSwkAU5J-106">
          <mxGeometry relative="1" as="geometry" />
        </mxCell>
        <mxCell id="oCJuTsg-3VOqoSwkAU5J-108" value="" style="endArrow=classic;html=1;rounded=0;exitX=1;exitY=0.5;exitDx=0;exitDy=0;entryX=0;entryY=0.5;entryDx=0;entryDy=0;" edge="1" parent="1" source="oCJuTsg-3VOqoSwkAU5J-47" target="oCJuTsg-3VOqoSwkAU5J-49">
          <mxGeometry width="50" height="50" relative="1" as="geometry">
            <mxPoint x="540" y="790" as="sourcePoint" />
            <mxPoint x="590" y="740" as="targetPoint" />
          </mxGeometry>
        </mxCell>
        <mxCell id="oCJuTsg-3VOqoSwkAU5J-109" value="" style="endArrow=classic;html=1;rounded=0;exitX=0;exitY=0.5;exitDx=0;exitDy=0;entryX=0;entryY=0.5;entryDx=0;entryDy=0;" edge="1" parent="1" source="oCJuTsg-3VOqoSwkAU5J-24" target="oCJuTsg-3VOqoSwkAU5J-27">
          <mxGeometry relative="1" as="geometry">
            <mxPoint x="30" y="440" as="sourcePoint" />
            <mxPoint x="130" y="440" as="targetPoint" />
            <Array as="points">
              <mxPoint x="30" y="875" />
            </Array>
          </mxGeometry>
        </mxCell>
        <mxCell id="oCJuTsg-3VOqoSwkAU5J-110" value="Нет" style="edgeLabel;resizable=0;html=1;;align=center;verticalAlign=middle;" connectable="0" vertex="1" parent="oCJuTsg-3VOqoSwkAU5J-109">
          <mxGeometry relative="1" as="geometry" />
        </mxCell>
      </root>
    </mxGraphModel>
  </diagram>
</mxfile>
